<?xml version="1.0" encoding="utf-8"?>
<!-- Generator: Adobe Illustrator 26.5.2, SVG Export Plug-In . SVG Version: 6.00 Build 0)  -->
<svg version="1.1" id="Ebene_1" xmlns="http://www.w3.org/2000/svg" xmlns:xlink="http://www.w3.org/1999/xlink" x="0px" y="0px"
	 viewBox="0 0 391.6 314" style="enable-background:new 0 0 391.6 314;" xml:space="preserve">
<style type="text/css">
	.st0{fill:#2699FB;}
</style>
<g>
	<g>
		<path class="st0" d="M5,92.7c1.8-6.1,6-10.4,10.5-14.7c43-40.5,93.7-65.1,152.4-71.2c82.8-8.6,154.4,16.7,213.9,75.3
			c11.3,11.1,6.9,28.5-8.1,32.6c-7.2,1.9-13-0.6-18.5-5.4c-10.7-9.2-21-18.9-32.6-26.9C281.2,54,235.1,41.1,184.8,43.8
			c-56.7,3.1-105.3,25.1-146.1,64.7c-12,11.6-27.5,8-33.1-7.7c-0.2-0.5-0.4-0.9-0.6-1.3C5,97.2,5,95,5,92.7z"/>
		<path class="st0" d="M62.6,151.8c0-7.6,2.6-12.2,6.5-16.1c25.4-25.5,55.5-42.8,90.8-49.7c64-12.5,119.6,4.3,166.4,49.9
			c5.5,5.4,7.9,11.9,5.5,19.4c-2.3,7.3-7.5,12-15.1,13.5c-6.4,1.3-11.8-0.9-16.4-5.3c-10.2-9.7-21.4-17.9-33.8-24.6
			c-55.2-29.8-124.2-20.6-169.6,22.7c-8.3,7.9-15.9,9.7-23.9,5.2C66.4,163.2,62.8,157.6,62.6,151.8z"/>
		<path class="st0" d="M202.2,159.1c27.2,0.5,51.9,12,71.8,33.9c5.5,6.1,6.5,13.4,3.6,21c-2.7,7.3-8.2,11.6-15.9,12.5
			c-6.4,0.8-11.6-2-16.1-6.4c-12.2-11.8-26.8-18.6-43.8-19.3c-18.9-0.8-35.1,5.7-48.5,19.3c-10.7,10.9-27.3,7.5-32.1-6.5
			c-2.6-7.6-1.4-14.8,4-21C143.9,171.5,171.8,159,202.2,159.1z"/>
		<path class="st0" d="M198.6,307.3c-20.2,0-36.4-16.2-36.4-36.3c0-20.2,16.2-36.5,36.3-36.5c20.1,0,36.4,16.2,36.4,36.4
			C234.9,291.1,218.8,307.3,198.6,307.3z"/>
	</g>
</g>
</svg>
