<?xml version="1.0" encoding="utf-8"?>
<!-- Generator: Adobe Illustrator 26.5.2, SVG Export Plug-In . SVG Version: 6.00 Build 0)  -->
<svg version="1.1" id="Ebene_1" xmlns="http://www.w3.org/2000/svg" xmlns:xlink="http://www.w3.org/1999/xlink" x="0px" y="0px"
	 viewBox="0 0 391.6 383.9" style="enable-background:new 0 0 391.6 383.9;" xml:space="preserve">
<style type="text/css">
	.st0{fill:#CCCCCC;}
</style>
<g>
	<path class="st0" d="M128.3,267.1c-8-5.4-11.3-12.7-9-21.6c0.8-3.3,3-6.6,5.4-9.2c10.4-10.9,23-18.4,37-23.5c1.8-0.7,3.9-1.9,5-3.4
		c10.4-15.3,20.6-30.8,30.9-46.2c0.4-0.6,0.7-1.3,1.7-3.1c-8.1,0.6-15.4,0.7-22.6,1.7c-32.2,4.4-59.4,18.8-82.3,41.7
		c-11.1,11-28.3,7.2-32.7-7.1c-2.2-7-0.9-13.6,4.3-18.9c29.7-30.4,65.4-48.8,107.6-54.2c15.7-2,31.3-1.9,46.9,0.6
		c1.3,0.2,3.5-0.3,4.2-1.3c8.7-12.8,17.3-25.7,26.6-39.7c-9.1-1.7-17.4-3.7-25.8-4.7C152,69.1,89.4,91.5,36.9,143.2
		c-11.5,11.4-29,7.7-33.3-7.1c-2.2-7.4-0.2-13.9,5.2-19.5c35.2-35.8,76.9-60.2,125.7-72.1c45.1-11,89.9-9.6,134.4,3.8
		c3.3,1,5,0.6,6.9-2.4c7.8-12,15.7-23.9,23.8-35.7c4-5.9,10.8-7.9,17.1-5.5c6.1,2.3,10.2,8.6,9.1,15c-0.6,3.3-2.3,6.5-4.2,9.3
		C261.9,119.1,201.9,208.9,142,298.8c-16.4,24.6-32.8,49.1-49.2,73.7c-4.1,6.1-9.7,8.6-15.7,7.3c-9.8-2.2-14.6-12.9-9.4-21.6
		c2.8-4.8,6.1-9.3,9.2-14C93.9,318.7,111,293.1,128.3,267.1z"/>
	<path class="st0" d="M295.7,99.8c7.1-10.6,14.1-21.2,21.3-32c15.6,8.1,29.9,17.4,43.1,28.4c8,6.6,15.6,13.7,23,21
		c7.8,7.6,7.6,19.7,0.1,27.2c-7.4,7.4-19.3,7.9-26.8,0.3c-17.6-17.6-37.2-32.4-59.3-43.9C296.6,100.6,296.3,100.3,295.7,99.8z"/>
	<path class="st0" d="M248.3,170.8c7-10.6,13.7-20.6,20.5-30.5c0.6-0.8,2.9-1.3,3.9-0.9c20.1,9.4,38,22.1,53.2,38.3
		c7,7.4,6.5,19-0.5,26.2c-7.2,7.4-19.1,8.3-26.5,1C284.3,190.4,267.9,178.8,248.3,170.8z"/>
	<path class="st0" d="M195.7,288.6c16.1,0,29,12.9,29,28.9c0,15.9-13.3,29.1-29.2,28.9c-15.8-0.2-28.7-13.1-28.7-28.9
		C166.8,301.4,179.6,288.6,195.7,288.6z"/>
	<path class="st0" d="M198.4,245.6c7.8-11.7,15.1-22.7,22.5-33.7c0.5-0.8,2.3-1.3,3.3-1c17.4,5,32.7,13.9,44.7,27.6
		c6.5,7.4,5.2,19-2,25.8c-7.5,7-19,7.1-26.5-0.3c-9.5-9.4-20.8-15.2-33.9-17.5C204.1,246.2,201.7,246,198.4,245.6z"/>
</g>
</svg>
