<?xml version="1.0" encoding="utf-8"?>
<!-- Generator: Adobe Illustrator 26.5.2, SVG Export Plug-In . SVG Version: 6.00 Build 0)  -->
<svg version="1.1" id="Ebene_1" xmlns="http://www.w3.org/2000/svg" xmlns:xlink="http://www.w3.org/1999/xlink" x="0px" y="0px"
	 viewBox="0 0 120 21" style="enable-background:new 0 0 120 21;" xml:space="preserve">
<style type="text/css">
	.st0{fill:#FFFFFF;}
</style>
<g>
	<path class="st0" d="M9.4,11.3c0.4-0.4,0.6-1,0.6-1.7C10,9,9.8,8.4,9.4,8C9,7.6,8.4,7.3,7.7,7.3c-0.7,0-1.3,0.3-2,0.8v3.1
		C6.4,11.7,7,12,7.7,12C8.4,12,9,11.8,9.4,11.3z"/>
	<path class="st0" d="M17.6,0.4c0-0.3-0.1-0.4-0.4-0.4c0,0-0.1,0-0.1,0C12.8,0,8.5,0,4.2,0C4.1,0,4,0,3.9,0C2.7,0.2,1.5,0.6,0.3,1.2
		C0.1,1.3,0,1.5,0,1.8C0,8,0,14.3,0,20.6C0,21,0,21,0.5,21c2.4,0,4.9,0,7.3,0c2.1,0,4.2,0,6.3,0c0.3,0,0.5,0,0.8-0.1
		c0.2,0,0.3-0.2,0.3-0.4c0-0.3,0-0.6,0-0.9c0-5.9,0-11.8,0-17.7c0-0.5,0-0.6-0.5-0.6c-4.2,0-8.4,0-12.6,0c0,0-0.1,0-0.1,0
		C2,1.3,2.1,1.3,2.1,1.2c0.5-0.2,0.9-0.4,1.5-0.4c4.2,0,8.5,0,12.7,0c0.1,0,0.1,0,0.2,0c0,0.1,0,0.2,0,0.2c0,1.8,0,3.6,0,5.3
		c0,4.2,0,8.3,0,12.5c0,0.1,0,0.2-0.2,0.3c-0.3,0.1-0.6,0.3-0.9,0.4c0.6,0,1.1,0,1.7,0c0.4,0,0.4-0.1,0.4-0.5c0-4.7,0-9.3,0-14
		C17.6,3.6,17.6,2,17.6,0.4z M3.5,5.4h2.2V6c0.7-0.5,1.5-0.8,2.4-0.8c1.2,0,2.2,0.4,3,1.3c0.8,0.8,1.2,1.9,1.2,3.2
		c0,1.3-0.4,2.3-1.2,3.1c-0.8,0.8-1.8,1.3-3,1.3c-0.9,0-1.7-0.3-2.4-0.8v3.9H3.5V5.4z"/>
</g>
<g>
	<path class="st0" d="M26.5,8.6c-0.6,0-1.1,0.1-1.5,0.4V6.2h-1.8v8.7H25v-0.3c0.4,0.3,1,0.4,1.5,0.4c0.9,0,1.6-0.3,2.2-0.9
		c0.6-0.6,0.9-1.4,0.9-2.3c0-0.9-0.3-1.7-0.9-2.3C28.1,8.9,27.3,8.6,26.5,8.6z M25,10.8c0.4-0.3,0.8-0.5,1.2-0.5
		c0.5,0,0.8,0.1,1.1,0.4c0.3,0.3,0.4,0.6,0.4,1.1c0,0.5-0.1,0.8-0.4,1.1c-0.3,0.3-0.6,0.4-1.1,0.4c-0.4,0-0.8-0.2-1.2-0.5V10.8z"/>
	<path class="st0" d="M31.4,6c-0.3,0-0.6,0.1-0.8,0.3c-0.2,0.2-0.3,0.5-0.3,0.8c0,0.3,0.1,0.6,0.3,0.8c0.2,0.2,0.5,0.3,0.8,0.3
		c0.3,0,0.6-0.1,0.8-0.3c0.2-0.2,0.3-0.5,0.3-0.8c0-0.3-0.1-0.6-0.3-0.8C32,6.1,31.7,6,31.4,6z"/>
	<rect x="30.5" y="8.8" class="st0" width="1.8" height="6.2"/>
	<path class="st0" d="M37,8.6c-0.6,0-1.1,0.1-1.5,0.4V6.2h-1.8v8.7h1.8v-0.3c0.4,0.3,1,0.4,1.5,0.4c0.9,0,1.6-0.3,2.2-0.9
		c0.6-0.6,0.9-1.4,0.9-2.3c0-0.9-0.3-1.7-0.9-2.3C38.6,8.9,37.9,8.6,37,8.6z M35.5,10.8c0.4-0.3,0.8-0.5,1.2-0.5
		c0.5,0,0.8,0.1,1.1,0.4c0.3,0.3,0.4,0.6,0.4,1.1c0,0.5-0.1,0.8-0.4,1.1c-0.3,0.3-0.6,0.4-1.1,0.4c-0.4,0-0.8-0.2-1.2-0.5V10.8z"/>
	<path class="st0" d="M41.8,12.6c-0.3,0-0.6,0.1-0.8,0.3c-0.2,0.2-0.3,0.5-0.3,0.9c0,0.3,0.1,0.6,0.3,0.9c0.2,0.2,0.5,0.3,0.8,0.3
		c0.3,0,0.6-0.1,0.9-0.3c0.2-0.2,0.3-0.5,0.3-0.9c0-0.3-0.1-0.6-0.3-0.9C42.4,12.8,42.1,12.6,41.8,12.6z"/>
	<path class="st0" d="M47.4,8.6c-0.6,0-1.1,0.1-1.5,0.4V8.8H44v8.4h1.8v-2.6c0.4,0.3,1,0.4,1.5,0.4c0.9,0,1.6-0.3,2.2-0.9
		c0.6-0.6,0.9-1.4,0.9-2.3c0-0.9-0.3-1.7-0.9-2.3C49,8.9,48.2,8.6,47.4,8.6z M45.8,10.8c0.4-0.3,0.8-0.5,1.2-0.5
		c0.5,0,0.8,0.1,1.1,0.4c0.3,0.3,0.4,0.6,0.4,1.1c0,0.5-0.1,0.8-0.4,1.1c-0.3,0.3-0.6,0.4-1.1,0.4c-0.4,0-0.8-0.2-1.2-0.5V10.8z"/>
	<path class="st0" d="M53.2,9.2V8.8h-1.8v6.2h1.8v-4.1c0.6-0.2,1.2-0.4,1.9-0.4h0.1V8.6H55C54.4,8.6,53.8,8.8,53.2,9.2z"/>
	<path class="st0" d="M58.8,8.6c-1,0-1.8,0.3-2.4,0.9c-0.6,0.6-0.9,1.4-0.9,2.3c0,0.9,0.3,1.7,0.9,2.3c0.6,0.6,1.4,0.9,2.4,0.9
		c1,0,1.8-0.3,2.4-0.9c0.6-0.6,0.9-1.4,0.9-2.3c0-0.9-0.3-1.7-0.9-2.3C60.6,8.9,59.8,8.6,58.8,8.6z M57.8,10.8
		c0.3-0.3,0.6-0.4,1-0.4c0.4,0,0.8,0.1,1.1,0.4c0.3,0.3,0.4,0.6,0.4,1.1c0,0.5-0.1,0.8-0.4,1.1c-0.3,0.3-0.6,0.4-1,0.4
		c-0.4,0-0.8-0.1-1-0.4c-0.3-0.3-0.4-0.6-0.4-1.1C57.4,11.4,57.5,11,57.8,10.8z"/>
	<path class="st0" d="M70,8.6c-0.6,0-1.3,0.3-1.9,0.8c-0.4-0.5-0.9-0.8-1.7-0.8c-0.5,0-1,0.1-1.5,0.4V8.8h-1.8v6.2h1.8v-4.2
		c0.7-0.4,1.3-0.4,1.6-0.1c0.1,0.2,0.2,0.4,0.2,0.9v3.5h1.8v-3.7c0-0.2,0-0.3,0-0.5c0.8-0.4,1.4-0.4,1.6-0.1
		c0.1,0.2,0.2,0.4,0.2,0.9v3.5h1.8v-3.7c0-0.8-0.2-1.5-0.6-1.9C71.1,8.9,70.6,8.6,70,8.6z"/>
	<path class="st0" d="M76.2,8.6c-1,0-1.8,0.3-2.4,0.9c-0.6,0.6-0.9,1.4-0.9,2.3c0,0.9,0.3,1.7,0.9,2.3c0.6,0.6,1.4,0.9,2.4,0.9
		c1,0,1.8-0.3,2.4-0.9c0.6-0.6,0.9-1.4,0.9-2.3c0-0.9-0.3-1.7-0.9-2.3C78,8.9,77.2,8.6,76.2,8.6z M75.2,10.8c0.3-0.3,0.6-0.4,1-0.4
		c0.4,0,0.8,0.1,1.1,0.4c0.3,0.3,0.4,0.6,0.4,1.1c0,0.5-0.1,0.8-0.4,1.1c-0.3,0.3-0.6,0.4-1,0.4c-0.4,0-0.8-0.1-1-0.4
		c-0.3-0.3-0.4-0.6-0.4-1.1C74.8,11.4,74.9,11,75.2,10.8z"/>
	<path class="st0" d="M83.4,11.1c-0.1,0-0.3-0.1-0.4-0.1c-0.2,0-0.3-0.1-0.4-0.1c-0.1,0-0.2-0.1-0.3-0.1c-0.1,0-0.1-0.1-0.2-0.1
		c0,0,0-0.1,0-0.1c0-0.1,0-0.4,0.7-0.4c0.7,0,1.2,0.2,1.7,0.5l0.2,0.1V9.2l-0.1,0c-0.5-0.3-1.2-0.5-1.9-0.5c-0.8,0-1.4,0.2-1.8,0.5
		c-0.5,0.4-0.7,0.9-0.7,1.5c0,1,0.5,1.6,1.5,1.9c0.1,0,0.3,0.1,0.5,0.1c0.2,0,0.3,0.1,0.4,0.1c0.1,0,0.2,0.1,0.3,0.1
		c0.1,0,0.1,0.1,0.2,0.1c0,0,0.1,0.1,0.1,0.1c0,0.2-0.3,0.4-0.8,0.4c-0.8,0-1.4-0.2-1.8-0.5l-0.2-0.1v1.7l0.1,0
		c0.5,0.3,1.2,0.5,2,0.5c0.8,0,1.5-0.2,1.9-0.5c0.5-0.4,0.7-0.9,0.7-1.6c0-0.6-0.2-1-0.5-1.3C84.2,11.4,83.8,11.2,83.4,11.1z"/>
	<polygon class="st0" points="88.5,11.9 87.3,8.8 85.2,8.8 88,14.9 88.9,14.9 91.7,8.8 89.7,8.8 	"/>
	<path class="st0" d="M94.9,8.6c-0.9,0-1.7,0.3-2.2,0.9c-0.6,0.6-0.9,1.4-0.9,2.3c0,0.9,0.3,1.7,0.9,2.3c0.6,0.6,1.5,0.9,2.6,0.9
		c0.9,0,1.7-0.2,2.2-0.5l0.1,0v-1.7l-0.2,0.1c-0.5,0.3-1.1,0.5-1.9,0.5c-0.5,0-0.9-0.1-1.2-0.3c-0.3-0.2-0.4-0.4-0.5-0.7h4.1l0-0.1
		c0-0.2,0-0.4,0-0.6c0-0.9-0.3-1.7-0.8-2.2C96.5,8.9,95.8,8.6,94.9,8.6z M93.7,11.1c0.1-0.2,0.2-0.4,0.4-0.6
		c0.2-0.2,0.5-0.3,0.8-0.3c0.6,0,0.9,0.3,1.1,0.8H93.7z"/>
	<path class="st0" d="M100.7,9.2V8.8h-1.8v6.2h1.8v-4.1c0.6-0.2,1.2-0.4,1.9-0.4h0.1V8.6h-0.1C102,8.6,101.3,8.8,100.7,9.2z"/>
	<rect x="103.6" y="6.2" class="st0" width="1.8" height="8.7"/>
	<path class="st0" d="M110.9,9.1c-0.5-0.3-1-0.4-1.5-0.4c-0.9,0-1.6,0.3-2.2,0.9c-0.6,0.6-0.9,1.4-0.9,2.3c0,0.9,0.3,1.7,0.9,2.3
		c0.6,0.6,1.3,0.9,2.2,0.9c0.6,0,1.1-0.1,1.5-0.4v0.3h1.8V8.8h-1.8V9.1z M110.9,12.9c-0.4,0.3-0.8,0.5-1.2,0.5
		c-0.4,0-0.8-0.1-1.1-0.4c-0.3-0.3-0.4-0.6-0.4-1.1c0-0.5,0.1-0.8,0.4-1.1c0.3-0.3,0.6-0.4,1.1-0.4c0.4,0,0.8,0.2,1.2,0.5V12.9z"/>
	<path class="st0" d="M118.2,8.8v0.3c-0.5-0.3-1-0.4-1.5-0.4c-0.9,0-1.6,0.3-2.2,0.9c-0.6,0.6-0.9,1.3-0.9,2.2s0.3,1.6,0.9,2.2
		c0.6,0.6,1.3,0.9,2.2,0.9c0.6,0,1.1-0.1,1.5-0.4v0.1c0,0.3-0.1,0.6-0.4,0.8c-0.3,0.2-0.8,0.3-1.3,0.3c-0.8,0-1.4-0.2-1.9-0.5
		l-0.2-0.1v1.7l0.1,0c0.6,0.4,1.3,0.5,2.2,0.5c1.1,0,1.9-0.3,2.6-0.8c0.6-0.5,0.9-1.2,0.9-2V8.8H118.2z M117,13.1
		c-0.4,0-0.8-0.1-1.1-0.4c-0.3-0.3-0.4-0.6-0.4-1c0-0.4,0.1-0.8,0.4-1c0.3-0.3,0.6-0.4,1.1-0.4c0.4,0,0.8,0.2,1.2,0.5v1.8
		C117.8,13,117.4,13.1,117,13.1z"/>
</g>
</svg>
