<?xml version="1.0" encoding="utf-8"?>
<!-- Generator: Adobe Illustrator 26.5.2, SVG Export Plug-In . SVG Version: 6.00 Build 0)  -->
<svg version="1.1" id="Ebene_1" xmlns="http://www.w3.org/2000/svg" xmlns:xlink="http://www.w3.org/1999/xlink" x="0px" y="0px"
	 viewBox="0 0 144.3 67.2" style="enable-background:new 0 0 144.3 67.2;" xml:space="preserve">
<style type="text/css">
	.st0{fill:#FFFFFF;}
	.st1{fill:#1D1D1B;}
</style>
<g>
	<path d="M47.5,61.2c0.9-0.4,1.7-0.8,2.6-1.2c0.4-0.2,0.5-0.4,0.5-0.8c0-12.3,0-24.5,0-36.8c0-5.2,0-10.5,0-15.7c0-0.2,0-0.4,0-0.7
		c-0.2,0-0.4,0-0.6,0c-12.5,0-25,0-37.5,0c-1.5,0-2.9,0.6-4.3,1.1C8,7.2,7.8,7.3,7.6,7.4c0.1,0,0.3,0,0.4,0c12.4,0,24.8,0,37.2,0
		c1.6,0,1.6,0.1,1.6,1.6c0,17.4,0,34.8,0,52.1c0,0.9,0,1.8,0,2.7c0,0.7-0.2,1-0.9,1.1c-0.7,0.1-1.5,0.2-2.2,0.2
		c-6.2,0-12.4,0-18.7,0c-7.2,0-14.4,0-21.6,0C2,65.3,2,65.3,2,64C2,45.5,2,27.1,2,8.6c0-0.8,0.3-1.3,1-1.7C6.3,5.1,9.8,4,13.5,3.5
		c0.3,0,0.7-0.1,1-0.1c12.6,0,25.2,0,37.8,0c0.1,0,0.2,0,0.4,0c0.8,0,1.1,0.3,1.1,1.1c0,4.7,0,9.4,0,14c0,13.7,0,27.4,0,41.2
		c0,1.1-0.2,1.4-1.3,1.5C50.8,61.3,49.2,61.2,47.5,61.2z"/>
</g>
<g>
	<path class="st0" d="M25.8,44.8c-2.6,0-5-0.8-7-2.3V54h-6.5V19.4h6.5v1.8c2-1.6,4.3-2.3,7-2.3c3.5,0,6.5,1.2,8.8,3.7
		c2.4,2.5,3.5,5.6,3.5,9.3c0,3.7-1.2,6.8-3.5,9.3C32.3,43.6,29.4,44.8,25.8,44.8z M24.7,38.7c2,0,3.7-0.6,4.9-1.9
		c1.2-1.3,1.8-2.9,1.8-4.9c0-2.1-0.6-3.7-1.8-5c-1.2-1.2-2.8-1.9-4.9-1.9c-2,0-3.9,0.8-5.8,2.3v9C20.8,37.9,22.7,38.7,24.7,38.7z"/>
</g>
<g>
	<path class="st1" d="M74,19.3c0.8,0.5,1.7,0.8,2.7,0.8c1.5,0,2.8-0.5,3.8-1.6c1-1.1,1.5-2.4,1.5-4c0-1.6-0.5-3-1.5-4
		c-1-1.1-2.3-1.6-3.8-1.6c-1,0-1.9,0.3-2.7,0.8V4.7h-3.2v15.1H74V19.3z M74,12.7c0.7-0.6,1.4-0.8,2.2-0.8c0.8,0,1.4,0.2,1.9,0.7
		c0.5,0.5,0.7,1.1,0.7,1.9c0,0.8-0.2,1.4-0.7,1.9c-0.5,0.5-1.1,0.7-1.9,0.7c-0.7,0-1.5-0.3-2.2-0.8V12.7z"/>
	<rect x="83.6" y="9.1" class="st1" width="3.2" height="10.8"/>
	<path class="st1" d="M85.2,8.2c0.5,0,1-0.2,1.4-0.6c0.4-0.4,0.5-0.8,0.5-1.4c0-0.5-0.2-1-0.5-1.4c-0.4-0.4-0.8-0.6-1.4-0.6
		c-0.5,0-1,0.2-1.4,0.6c-0.4,0.4-0.5,0.8-0.5,1.4c0,0.5,0.2,1,0.5,1.4C84.2,8,84.7,8.2,85.2,8.2z"/>
	<path class="st1" d="M92.4,19.3c0.8,0.5,1.7,0.8,2.7,0.8c1.5,0,2.8-0.5,3.8-1.6c1-1.1,1.5-2.4,1.5-4c0-1.6-0.5-3-1.5-4
		c-1-1.1-2.3-1.6-3.8-1.6c-1,0-1.9,0.3-2.7,0.8V4.7h-3.2v15.1h3.2V19.3z M92.4,12.7c0.7-0.6,1.4-0.8,2.2-0.8c0.8,0,1.4,0.2,1.9,0.7
		c0.5,0.5,0.7,1.1,0.7,1.9c0,0.8-0.2,1.4-0.7,1.9c-0.5,0.5-1.1,0.7-1.9,0.7c-0.7,0-1.5-0.3-2.2-0.8V12.7z"/>
	<path class="st1" d="M103.4,20.1c0.6,0,1.1-0.2,1.5-0.6c0.4-0.4,0.6-0.9,0.6-1.5c0-0.6-0.2-1.1-0.6-1.5c-0.4-0.4-0.9-0.6-1.5-0.6
		c-0.6,0-1.1,0.2-1.5,0.6c-0.4,0.4-0.6,0.9-0.6,1.5c0,0.6,0.2,1.1,0.6,1.5C102.3,19.9,102.8,20.1,103.4,20.1z"/>
	<path class="st1" d="M74,40c0.8,0.5,1.7,0.8,2.7,0.8c1.5,0,2.8-0.5,3.8-1.6c1-1.1,1.5-2.4,1.5-4c0-1.6-0.5-3-1.5-4
		c-1-1.1-2.3-1.6-3.8-1.6c-1,0-1.9,0.3-2.7,0.8v-0.5h-3.2v14.7H74V40z M74,33.4c0.7-0.6,1.4-0.8,2.2-0.8c0.8,0,1.4,0.2,1.9,0.7
		c0.5,0.5,0.7,1.1,0.7,1.9c0,0.8-0.2,1.4-0.7,1.9c-0.5,0.5-1.1,0.7-1.9,0.7c-0.7,0-1.5-0.3-2.2-0.8V33.4z"/>
	<path class="st1" d="M83.6,40.5h3.2v-7.1c1-0.4,2.1-0.7,3.2-0.7h0.2v-3.2H90c-1,0-2.1,0.3-3.2,0.9v-0.7h-3.2V40.5z"/>
	<path class="st1" d="M100.9,31.1c-1.1-1-2.5-1.6-4.2-1.6c-1.7,0-3.1,0.5-4.2,1.6c-1.1,1-1.6,2.4-1.6,4c0,1.6,0.5,3,1.6,4
		c1.1,1,2.5,1.6,4.2,1.6c1.7,0,3.1-0.5,4.2-1.6c1.1-1,1.6-2.4,1.6-4C102.5,33.5,101.9,32.2,100.9,31.1z M94.9,33.3
		c0.5-0.5,1.1-0.7,1.8-0.7c0.8,0,1.4,0.2,1.8,0.7c0.5,0.5,0.7,1.1,0.7,1.9c0,0.8-0.2,1.4-0.7,1.9c-0.5,0.5-1.1,0.7-1.8,0.7
		c-0.8,0-1.4-0.2-1.8-0.7c-0.5-0.5-0.7-1.1-0.7-1.9C94.2,34.3,94.4,33.7,94.9,33.3z"/>
	<path class="st1" d="M104.1,29.8v10.8h3.2v-7.4c1.3-0.7,2.3-0.8,2.8-0.2c0.2,0.3,0.3,0.8,0.3,1.5v6.1h3.2V34c0-0.3,0-0.6,0-0.9
		c1.3-0.7,2.4-0.8,2.8-0.2c0.2,0.3,0.3,0.8,0.3,1.5v6.1h3.2V34c0-1.5-0.3-2.6-1-3.3c-0.7-0.7-1.6-1.1-2.7-1.1
		c-1.1,0-2.2,0.5-3.4,1.3c-0.6-0.9-1.6-1.3-2.9-1.3c-0.9,0-1.8,0.3-2.6,0.8v-0.6H104.1z"/>
	<path class="st1" d="M127.1,29.5c-1.7,0-3.1,0.5-4.2,1.6c-1.1,1-1.6,2.4-1.6,4c0,1.6,0.5,3,1.6,4c1.1,1,2.5,1.6,4.2,1.6
		c1.7,0,3.1-0.5,4.2-1.6c1.1-1,1.6-2.4,1.6-4c0-1.6-0.5-3-1.6-4C130.2,30.1,128.8,29.5,127.1,29.5z M125.3,33.3
		c0.5-0.5,1.1-0.7,1.8-0.7c0.8,0,1.4,0.2,1.8,0.7c0.5,0.5,0.7,1.1,0.7,1.9c0,0.8-0.2,1.4-0.7,1.9c-0.5,0.5-1.1,0.7-1.8,0.7
		c-0.8,0-1.4-0.2-1.8-0.7h0c-0.5-0.5-0.7-1.1-0.7-1.9C124.6,34.3,124.8,33.7,125.3,33.3z"/>
	<path class="st1" d="M141.6,34.8c-0.5-0.5-1.2-0.8-2-0.9c-0.2,0-0.4-0.1-0.8-0.1c-0.3-0.1-0.5-0.1-0.7-0.1c-0.2,0-0.3-0.1-0.5-0.2
		c-0.1,0-0.2-0.1-0.3-0.2c0-0.1-0.1-0.1-0.1-0.2c0-0.2,0-0.6,1.3-0.6c1.2,0,2.1,0.3,2.9,0.8l0.4,0.2v-3l-0.1-0.1
		c-0.9-0.6-2.1-0.9-3.3-0.9c-1.3,0-2.4,0.3-3.2,0.9c-0.8,0.6-1.2,1.5-1.2,2.6c0,1.7,0.9,2.8,2.6,3.2c0.2,0.1,0.5,0.1,0.8,0.2
		c0.3,0.1,0.6,0.1,0.7,0.1c0.2,0,0.4,0.1,0.6,0.2c0.1,0,0.3,0.1,0.3,0.2c0.1,0.1,0.1,0.2,0.1,0.3c0,0.4-0.5,0.6-1.5,0.6
		c-1.3,0-2.4-0.3-3.2-0.8l-0.4-0.2v3l0.1,0.1c0.9,0.6,2.1,0.9,3.5,0.9c1.4,0,2.6-0.3,3.4-1c0.8-0.7,1.3-1.6,1.3-2.7
		C142.4,36,142.1,35.3,141.6,34.8z"/>
	<polygon class="st1" points="75.4,55.9 73.3,50.4 69.6,50.4 74.5,61.1 76.1,61.1 81,50.4 77.6,50.4 	"/>
	<path class="st1" d="M86.6,50.2c-1.6,0-2.9,0.5-3.9,1.6c-1,1-1.5,2.4-1.5,4c0,1.7,0.6,3,1.6,4c1.1,1,2.6,1.5,4.5,1.5
		c1.6,0,2.9-0.3,3.9-0.9l0.1-0.1v-2.9l-0.4,0.2c-0.8,0.6-2,0.9-3.4,0.9c-0.9,0-1.6-0.2-2.1-0.5c-0.5-0.3-0.8-0.7-1-1.2h7.2l0-0.2
		c0-0.4,0-0.7,0-1c0-1.6-0.5-2.9-1.4-3.9C89.4,50.7,88.1,50.2,86.6,50.2z M84.5,54.5c0.2-0.4,0.4-0.7,0.7-1c0.4-0.3,0.8-0.5,1.4-0.5
		c1,0,1.6,0.5,1.9,1.4H84.5z"/>
	<path class="st1" d="M96.7,51.1v-0.7h-3.2v10.8h3.2V54c1-0.4,2.1-0.7,3.2-0.7h0.2v-3.2H100C98.9,50.2,97.8,50.5,96.7,51.1z"/>
	<rect x="101.7" y="46" class="st1" width="3.2" height="15.1"/>
	<path class="st1" d="M114.5,50.9c-0.8-0.5-1.7-0.7-2.7-0.7c-1.5,0-2.8,0.5-3.8,1.6c-1,1.1-1.5,2.4-1.5,4c0,1.6,0.5,2.9,1.5,4
		c1,1.1,2.3,1.6,3.8,1.6c1,0,1.9-0.2,2.7-0.7v0.5h3.2V50.4h-3.2V50.9z M114.5,57.5c-0.7,0.6-1.4,0.8-2.2,0.8c-0.8,0-1.4-0.2-1.8-0.7
		c-0.5-0.5-0.7-1.1-0.7-1.9c0-0.8,0.2-1.4,0.7-1.9c0.5-0.5,1.1-0.7,1.8-0.7c0.7,0,1.4,0.3,2.2,0.8V57.5z"/>
	<path class="st1" d="M127.3,50.9c-0.8-0.5-1.7-0.7-2.7-0.7c-1.5,0-2.8,0.5-3.8,1.5c-1,1-1.5,2.3-1.5,3.9c0,1.6,0.5,2.9,1.5,3.9
		c1,1,2.3,1.5,3.8,1.5c1,0,1.9-0.3,2.7-0.8v0.2c0,0.6-0.2,1-0.8,1.4c-0.5,0.4-1.3,0.5-2.3,0.5c-1.4,0-2.5-0.3-3.4-0.8l-0.3-0.2v3
		l0.1,0.1c1,0.6,2.3,1,3.8,1c1.9,0,3.4-0.5,4.5-1.4c1.1-0.9,1.6-2.1,1.6-3.5V50.4h-3.2V50.9z M127.3,57.2c-0.7,0.6-1.4,0.8-2.2,0.8
		c-0.8,0-1.4-0.2-1.8-0.7c-0.5-0.4-0.7-1-0.7-1.8c0-0.7,0.2-1.3,0.7-1.8c0.5-0.4,1.1-0.7,1.8-0.7c0.7,0,1.4,0.3,2.2,0.8V57.2z"/>
</g>
</svg>
