<?xml version="1.0" encoding="UTF-8"?><svg id="svg5" xmlns="http://www.w3.org/2000/svg" viewBox="0 0 95.42 96.44"><defs><style>.cls-1{fill:#fff;}.cls-2{fill:#1d1d1b;}</style></defs><rect class="cls-2" width="95.42" height="96.44" rx="15.49" ry="15.49"/><g><path class="cls-1" d="M69.55,77.96c.95-.45,1.89-.92,2.85-1.32,.45-.19,.56-.44,.56-.9-.01-13.61,0-27.22,0-40.82,0-5.79,0-11.59,0-17.38,0-.23,0-.45,0-.73-.25-.01-.45-.03-.65-.03-13.86,0-27.71,0-41.57,.02-1.66,0-3.2,.63-4.75,1.16-.25,.09-.49,.2-.74,.38,.15,.01,.3,.03,.46,.03,13.74,0,27.48,0,41.23,0,1.73,0,1.79,.06,1.79,1.81,0,19.27,0,38.54,0,57.81,0,1.01,.01,2.02,.01,3.03,0,.77-.21,1.12-.96,1.26-.82,.15-1.66,.24-2.49,.25-6.9,.02-13.8,.01-20.7,.01-7.99,0-15.97,0-23.96,0-1.55,0-1.58-.03-1.58-1.53,0-20.45,0-40.9-.02-61.35,0-.94,.32-1.43,1.13-1.88,3.65-2.03,7.56-3.2,11.67-3.78,.36-.05,.72-.06,1.08-.06,13.97,0,27.94,0,41.91,0,.13,0,.27,0,.4,0,.89,.03,1.19,.33,1.19,1.23,0,5.18,0,10.37,0,15.55,0,15.21,0,30.42,0,45.63,0,1.16-.26,1.56-1.43,1.61-1.8,.08-3.6,.02-5.43,.02Z"/><path class="cls-2" d="M45.48,59.77c-2.93,0-5.5-.86-7.71-2.59v12.72h-7.26V31.57h7.26v2.03c2.21-1.73,4.78-2.59,7.71-2.59,3.9,0,7.16,1.36,9.77,4.08,2.61,2.72,3.91,6.16,3.91,10.33s-1.3,7.55-3.91,10.27c-2.61,2.72-5.86,4.08-9.77,4.08Zm-1.29-6.81c2.25,0,4.05-.69,5.4-2.08,1.35-1.39,2.03-3.21,2.03-5.46s-.67-4.12-2-5.49c-1.33-1.37-3.14-2.05-5.43-2.05s-4.32,.84-6.42,2.53v10.02c2.1,1.69,4.24,2.53,6.42,2.53Z"/></g></svg>