<?xml version="1.0" encoding="utf-8"?>
<!-- Generator: Adobe Illustrator 26.5.2, SVG Export Plug-In . SVG Version: 6.00 Build 0)  -->
<svg version="1.1" id="Ebene_1" xmlns="http://www.w3.org/2000/svg" xmlns:xlink="http://www.w3.org/1999/xlink" x="0px" y="0px"
	 viewBox="0 0 16 16" style="enable-background:new 0 0 16 16;" xml:space="preserve">
<g>
	<path d="M8.4,8.6c0.3-0.3,0.5-0.7,0.5-1.2c0-0.5-0.2-0.9-0.5-1.2C8.1,5.8,7.7,5.6,7.2,5.6c-0.5,0-1,0.2-1.5,0.6v2.3
		c0.5,0.4,1,0.6,1.5,0.6C7.7,9.1,8.1,8.9,8.4,8.6z"/>
	<path d="M14.5,0.5c0-0.2-0.1-0.3-0.3-0.3c0,0-0.1,0-0.1,0c-3.2,0-6.3,0-9.5,0c-0.1,0-0.2,0-0.2,0C3.5,0.4,2.6,0.6,1.7,1.1
		C1.6,1.2,1.5,1.3,1.5,1.5c0,4.6,0,9.3,0,13.9c0,0.3,0,0.3,0.4,0.3c1.8,0,3.6,0,5.4,0c1.6,0,3.1,0,4.7,0c0.2,0,0.4,0,0.6-0.1
		c0.2,0,0.2-0.1,0.2-0.3c0-0.2,0-0.5,0-0.7c0-4.4,0-8.8,0-13.1c0-0.4,0-0.4-0.4-0.4c-3.1,0-6.2,0-9.4,0c0,0-0.1,0-0.1,0
		C3,1.2,3,1.1,3.1,1.1C3.4,1,3.8,0.9,4.1,0.9c3.1,0,6.3,0,9.4,0c0,0,0.1,0,0.1,0c0,0.1,0,0.1,0,0.2c0,1.3,0,2.6,0,3.9
		c0,3.1,0,6.2,0,9.3c0,0.1,0,0.2-0.1,0.2c-0.2,0.1-0.4,0.2-0.6,0.3c0.4,0,0.8,0,1.2,0c0.3,0,0.3-0.1,0.3-0.4c0-3.5,0-6.9,0-10.4
		C14.5,2.8,14.5,1.7,14.5,0.5z M4.1,4.2h1.6v0.5c0.5-0.4,1.1-0.6,1.8-0.6c0.9,0,1.6,0.3,2.2,0.9c0.6,0.6,0.9,1.4,0.9,2.3
		c0,0.9-0.3,1.7-0.9,2.3c-0.6,0.6-1.3,0.9-2.2,0.9c-0.7,0-1.2-0.2-1.8-0.6v2.9H4.1V4.2z"/>
</g>
</svg>
