<svg id="Group_395" data-name="Group 395" xmlns="http://www.w3.org/2000/svg" xmlns:xlink="http://www.w3.org/1999/xlink" width="29.547" height="25.439" viewBox="0 0 29.547 25.439">
  <defs>
    <clipPath id="clip-path">
      <rect id="Rectangle_248" data-name="Rectangle 248" width="29.547" height="25.439" fill="#fff"/>
    </clipPath>
  </defs>
  <g id="Group_310" data-name="Group 310" clip-path="url(#clip-path)">
    <path id="Path_357" data-name="Path 357" d="M0,25.44V3.839H4.071V.026C4.17.015,4.235,0,4.3,0A16.014,16.014,0,0,1,8.331.42a14.911,14.911,0,0,1,6.225,3.24.757.757,0,0,0,.455.173q7.268.013,14.536.007v21.6c-.115-.006-.229-.019-.344-.019H.344c-.115,0-.229.012-.344.019M27.794,5.582H15.655V23.676H27.794ZM5.822,1.769V19.519a14.721,14.721,0,0,1,8.074,3.1c.007-.1.011-.135.011-.173q0-8.42-.006-16.841a.522.522,0,0,0-.157-.338A13.118,13.118,0,0,0,8.67,2.3a11.774,11.774,0,0,0-2.848-.53M4.066,21.235V5.584H1.747V23.665H12.4a12.947,12.947,0,0,0-8.333-2.43" transform="translate(0 0)" fill="#fff"/>
    <rect id="Rectangle_244" data-name="Rectangle 244" width="7.785" height="1.704" transform="translate(17.873 15.374)" fill="#fff"/>
    <rect id="Rectangle_245" data-name="Rectangle 245" width="7.79" height="1.703" transform="translate(17.871 18.71)" fill="#fff"/>
    <rect id="Rectangle_246" data-name="Rectangle 246" width="7.796" height="1.68" transform="translate(17.875 8.715)" fill="#fff"/>
    <rect id="Rectangle_247" data-name="Rectangle 247" width="7.794" height="1.691" transform="translate(17.871 12.047)" fill="#fff"/>
  </g>
</svg>
