<svg id="Group_397" data-name="Group 397" xmlns="http://www.w3.org/2000/svg" xmlns:xlink="http://www.w3.org/1999/xlink" width="29.204" height="25.491" viewBox="0 0 29.204 25.491">
  <defs>
    <clipPath id="clip-path">
      <rect id="Rectangle_352" data-name="Rectangle 352" width="29.204" height="25.491" fill="#2699fb"/>
    </clipPath>
  </defs>
  <g id="Group_393" data-name="Group 393" clip-path="url(#clip-path)">
    <path id="Path_382" data-name="Path 382" d="M29.2,166.325a1.015,1.015,0,0,0-.056.126,1.729,1.729,0,0,1-1.732,1.3c-1.6,0-3.194,0-4.791,0h-.3a5.217,5.217,0,0,1-.195.619,1.883,1.883,0,0,1-1.786,1.2q-5.746.023-11.493,0a1.967,1.967,0,0,1-1.9-1.563c-.018-.082-.041-.164-.065-.261H6.572q-2.4,0-4.791,0A1.679,1.679,0,0,1,0,165.959q0-3.029,0-6.057a3.854,3.854,0,0,1,3.9-3.917,12.385,12.385,0,0,1,2.046.084,3.664,3.664,0,0,1,2.623,1.881c.043.074.085.148.128.222,0,.006.016.007.029.012.282-.247.554-.511.852-.743a6.618,6.618,0,0,1,4.173-1.451,20.928,20.928,0,0,1,2.955.135,6.33,6.33,0,0,1,3.57,1.885c.06.06.113.128.19.215.056-.088.1-.146.131-.207a3.8,3.8,0,0,1,3.4-2.029,10.579,10.579,0,0,1,2.156.1,3.757,3.757,0,0,1,3,3.136.658.658,0,0,0,.051.127Zm-14.612,1.543h5.557c.349,0,.441-.081.441-.4,0-1.58.018-3.16-.006-4.74a5.121,5.121,0,0,0-4.131-4.9,15.324,15.324,0,0,0-2.61-.123,5.182,5.182,0,0,0-5.229,5.233c0,1.485,0,2.97,0,4.454,0,.417.062.479.478.479h5.5m-7.685-1.841c0-1.107-.035-2.184.013-3.257a18.116,18.116,0,0,1,.286-1.911,7,7,0,0,0,.144-1.059,2.065,2.065,0,0,0-1.727-2.045A10.749,10.749,0,0,0,4,157.7a2.152,2.152,0,0,0-2.291,2.283q0,2.87,0,5.74v.306Zm20.581,0c0-2.136.02-4.24-.009-6.342a2.035,2.035,0,0,0-1.7-1.925,9.934,9.934,0,0,0-1.533-.059,3.011,3.011,0,0,0-.79.072,2.246,2.246,0,0,0-1.534,2.881,7.956,7.956,0,0,1,.311,1.472c.06,1.2.049,2.4.066,3.595,0,.1,0,.2,0,.306Z" transform="translate(0 -144.094)" fill="#2699fb"/>
    <path id="Path_383" data-name="Path 383" d="M131.495,0a4.972,4.972,0,1,1-4.972,4.947A4.974,4.974,0,0,1,131.495,0m-3.26,4.97a3.251,3.251,0,1,0,3.244-3.255,3.265,3.265,0,0,0-3.244,3.255" transform="translate(-116.882 0)" fill="#2699fb"/>
    <path id="Path_384" data-name="Path 384" d="M21.881,54.293a3.142,3.142,0,1,1,3.132-3.147,3.15,3.15,0,0,1-3.132,3.147m-.015-1.714a1.428,1.428,0,1,0-1.414-1.446,1.431,1.431,0,0,0,1.414,1.446" transform="translate(-17.313 -44.35)" fill="#2699fb"/>
    <path id="Path_385" data-name="Path 385" d="M285.335,54.292a3.142,3.142,0,1,1,3.162-3.116,3.15,3.15,0,0,1-3.162,3.116m.039-1.714a1.428,1.428,0,1,0-1.437-1.423,1.432,1.432,0,0,0,1.438,1.423" transform="translate(-260.72 -44.349)" fill="#2699fb"/>
  </g>
</svg>
