<svg id="Group_439" data-name="Group 439" xmlns="http://www.w3.org/2000/svg" xmlns:xlink="http://www.w3.org/1999/xlink" width="39" height="35.592" viewBox="0 0 39 35.592">
  <defs>
    <clipPath id="clip-path">
      <rect id="Rectangle_1484" data-name="Rectangle 1484" width="39" height="35.592" fill="#2699fb"/>
    </clipPath>
  </defs>
  <g id="Group_438" data-name="Group 438" clip-path="url(#clip-path)">
    <path id="Path_392" data-name="Path 392" d="M0,28.06a12.059,12.059,0,0,1,2-4.709c.734-1.257,1.461-2.519,2.19-3.78q4.595-7.94,9.187-15.881A7.009,7.009,0,0,1,18.313.111a6.806,6.806,0,0,1,6.815,2.821c1.379,2.213,2.656,4.489,3.965,6.745q3.983,6.867,7.953,13.742A11.731,11.731,0,0,1,39,28.06V29.2a13.765,13.765,0,0,1-.614,2.178,6.813,6.813,0,0,1-6.6,4.207c-2.03.012-4.061,0-6.092,0q-9.29,0-18.579,0a6.843,6.843,0,0,1-6.75-4.807c-.165-.486-.244-1-.363-1.5V28.06m19.463,4.389q6.149,0,12.3,0a3.977,3.977,0,0,0,2.685-.883,3.8,3.8,0,0,0,.787-5.006q-5.56-9.616-11.124-19.23c-.494-.854-.956-1.732-1.508-2.548A3.555,3.555,0,0,0,19.164,3.17,3.777,3.777,0,0,0,16.1,5.257Q9.964,15.88,3.812,26.491a6.239,6.239,0,0,0-.3.57,3.661,3.661,0,0,0,.241,3.625A3.748,3.748,0,0,0,7.165,32.45q6.149,0,12.3,0" transform="translate(0 0.001)" fill="#2699fb"/>
    <path id="Path_393" data-name="Path 393" d="M177.688,111.082q-.231,3.96-.462,7.92a10.553,10.553,0,0,1-.063,1.1,1.458,1.458,0,0,1-1.468,1.232,1.405,1.405,0,0,1-1.445-1.245c-.112-1-.146-2.018-.209-3.027-.125-2.008-.236-4.016-.372-6.023a2.094,2.094,0,0,1,2.674-2.32,1.972,1.972,0,0,1,1.344,1.761c.012.2,0,.4,0,.607" transform="translate(-156.208 -97.688)" fill="#2699fb"/>
    <path id="Path_394" data-name="Path 394" d="M174.2,250.9a2.007,2.007,0,0,1,2.024-1.98,1.992,1.992,0,0,1-.028,3.983,2,2,0,0,1-2-2" transform="translate(-156.688 -223.899)" fill="#2699fb"/>
  </g>
</svg>
