<svg id="Group_470" data-name="Group 470" xmlns="http://www.w3.org/2000/svg" xmlns:xlink="http://www.w3.org/1999/xlink" width="38" height="34.679" viewBox="0 0 38 34.679">
  <defs>
    <clipPath id="clip-path">
      <rect id="Rectangle_1484" data-name="Rectangle 1484" width="38" height="34.679" fill="#fb2682"/>
    </clipPath>
  </defs>
  <g id="Group_438" data-name="Group 438" clip-path="url(#clip-path)">
    <path id="Path_392" data-name="Path 392" d="M0,27.34a11.749,11.749,0,0,1,1.95-4.588c.716-1.225,1.423-2.455,2.134-3.683Q8.561,11.334,13.036,3.6A6.83,6.83,0,0,1,17.844.108a6.632,6.632,0,0,1,6.641,2.749c1.343,2.156,2.588,4.374,3.863,6.572q3.881,6.691,7.749,13.39A11.43,11.43,0,0,1,38,27.34v1.111a13.412,13.412,0,0,1-.6,2.122,6.638,6.638,0,0,1-6.433,4.1c-1.978.012-3.957,0-5.935,0q-9.051,0-18.1,0A6.668,6.668,0,0,1,.353,29.99C.192,29.516.116,29.014,0,28.525V27.34m18.964,4.277q5.991,0,11.982,0a3.875,3.875,0,0,0,2.616-.86,3.7,3.7,0,0,0,.766-4.877Q28.91,16.511,23.489,7.143c-.482-.833-.932-1.687-1.469-2.483a3.464,3.464,0,0,0-3.348-1.571,3.68,3.68,0,0,0-2.988,2.033Q9.709,15.473,3.714,25.812a6.079,6.079,0,0,0-.295.555A3.567,3.567,0,0,0,3.654,29.9a3.652,3.652,0,0,0,3.328,1.719q5.991,0,11.982,0" transform="translate(0 0.001)" fill="#fb2682"/>
    <path id="Path_393" data-name="Path 393" d="M177.585,111.018q-.225,3.858-.45,7.717a10.28,10.28,0,0,1-.062,1.068,1.421,1.421,0,0,1-1.43,1.2,1.369,1.369,0,0,1-1.408-1.213c-.109-.979-.143-1.966-.2-2.95-.122-1.956-.23-3.913-.363-5.869a2.041,2.041,0,0,1,2.605-2.261,1.922,1.922,0,0,1,1.31,1.716c.012.2,0,.394,0,.591" transform="translate(-156.656 -97.968)" fill="#fb2682"/>
    <path id="Path_394" data-name="Path 394" d="M174.2,250.845a1.956,1.956,0,0,1,1.972-1.929,1.941,1.941,0,0,1-.027,3.881,1.947,1.947,0,0,1-1.945-1.952" transform="translate(-157.137 -224.54)" fill="#fb2682"/>
  </g>
</svg>
