<?xml version="1.0" encoding="utf-8"?>
<!-- Generator: Adobe Illustrator 26.5.2, SVG Export Plug-In . SVG Version: 6.00 Build 0)  -->
<svg version="1.1" id="Ebene_1" xmlns="http://www.w3.org/2000/svg" xmlns:xlink="http://www.w3.org/1999/xlink" x="0px" y="0px"
	 viewBox="0 0 1024 882" style="enable-background:new 0 0 1024 882;" xml:space="preserve">
<style type="text/css">
	.st0{fill:#FFFFFF;}
</style>
<g>
	<path class="st0" d="M9.5,431.2c4.3-22.6,18.1-38.9,33.9-54.6C157.6,262.8,271.5,148.7,385.6,34.7c24-24,54.9-30.9,82.4-18.5
		c43.4,19.5,56.3,74.3,26,111.2c-3.7,4.5-7.8,8.8-12,12.9c-53.9,53.9-107.7,107.8-161.7,161.6c-25.1,25-48.1,52.9-83.4,65.2
		c0.2,0.8,0.4,1.7,0.7,2.5c3.7,0,7.3,0,11,0c228.3,0,456.6,0.1,684.8-0.1c22.8,0,43.7,4.4,59.8,21.6c20.1,21.3,26.9,46.5,16.3,74.1
		c-11,28.7-33.1,44.6-63.9,47.8c-5.8,0.6-11.8,0.5-17.6,0.5c-226.6,0-453.3,0-679.9,0c-3.7,0-7.5,0-10.4,0
		c15.4,10.5,31.1,20.8,46.2,31.7c5.8,4.2,10.6,9.7,15.7,14.8c61.7,61.8,123.2,123.8,185,185.5c21.7,21.6,31,46.9,22.8,76.7
		c-12.8,46.5-71.2,65.1-109.4,35.2c-5.1-4-10-8.5-14.6-13.1C270.4,731.2,157.5,618,44.2,505.2c-15.8-15.7-29.9-31.9-34.7-54.4
		C9.5,444.3,9.5,437.7,9.5,431.2z"/>
</g>
</svg>
