<svg id="Gruppe_743" data-name="Gruppe 743" xmlns="http://www.w3.org/2000/svg" xmlns:xlink="http://www.w3.org/1999/xlink" width="23" height="23" viewBox="0 0 23 23">
  <defs>
    <clipPath id="clip-path">
      <rect id="Rechteck_1631" data-name="Rechteck 1631" width="23" height="23" fill="#fff"/>
    </clipPath>
  </defs>
  <g id="Gruppe_584" data-name="Gruppe 584" clip-path="url(#clip-path)">
    <path id="Pfad_431" data-name="Pfad 431" d="M0,236.312v-7.434H2.191v3.628l4.7-4.7L8.466,229.4l-4.683,4.7H7.45v2.208Z" transform="translate(0 -213.607)" fill="#fff"/>
    <path id="Pfad_432" data-name="Pfad 432" d="M237.046,7.45h-2.2V3.784l-4.722,4.7-1.535-1.529,4.679-4.678-.032-.066h-3.622V0h7.433Z" transform="translate(-214.341)" fill="#fff"/>
    <path id="Pfad_433" data-name="Pfad 433" d="M229.075,237.024v-2.2h3.657l-4.7-4.7,1.584-1.56,4.7,4.7v-3.693h2.208v7.45Z" transform="translate(-213.82 -214.319)" fill="#fff"/>
    <path id="Pfad_434" data-name="Pfad 434" d="M.291.095H7.7V2.283H4.119L8.769,6.956,7.2,8.525,2.542,3.875,2.483,3.9V7.522H.291Z" transform="translate(-0.273 -0.089)" fill="#fff"/>
  </g>
</svg>
