<svg id="Gruppe_741" data-name="Gruppe 741" xmlns="http://www.w3.org/2000/svg" xmlns:xlink="http://www.w3.org/1999/xlink" width="19.287" height="25" viewBox="0 0 19.287 25">
  <defs>
    <clipPath id="clip-path">
      <rect id="Rechteck_1612" data-name="Rechteck 1612" width="19.287" height="25" fill="#fff"/>
    </clipPath>
  </defs>
  <g id="Gruppe_555" data-name="Gruppe 555" clip-path="url(#clip-path)">
    <path id="Pfad_418" data-name="Pfad 418" d="M18.909,158.754c-1.635-1.624-3.237-3.221-4.76-4.749a1.186,1.186,0,0,0-.889-.374h0c-2.987,0-6.023,0-8.96,0H1.08c-.756,0-1.079.324-1.079,1.084q0,5.419,0,10.837A1.659,1.659,0,0,0,.054,166a.876.876,0,0,0,.848.635H.912a.873.873,0,0,0,.845-.652,2.054,2.054,0,0,0,.048-.5q0-4.214,0-8.429v-1.616H12.5V156.6q0,1.382,0,2.764c0,.721.326,1.042,1.052,1.043h3.939v1.079q0,2.021,0,4.043c0,.022,0,.043,0,.065a1.842,1.842,0,0,0,.01.262.907.907,0,0,0,.809.783c.026,0,.053,0,.079,0a.886.886,0,0,0,.844-.612,1.458,1.458,0,0,0,.047-.424q0-1.038,0-2.077c0-1.272,0-2.588,0-3.882a1.183,1.183,0,0,0-.379-.891m-2.833-.149H14.312v-1.759Z" transform="translate(-0.001 -141.641)" fill="#fff"/>
    <path id="Pfad_419" data-name="Pfad 419" d="M1.107,10.5H18.175c.8,0,1.108-.31,1.108-1.106q0-4.148,0-8.3V1.061a2.324,2.324,0,0,0-.011-.282.9.9,0,0,0-1.5-.544,1.044,1.044,0,0,0-.283.77q0,2.859,0,5.719V8.707H1.805V7.264q0-3.066,0-6.133A1.769,1.769,0,0,0,1.748.621.838.838,0,0,0,.932,0,.856.856,0,0,0,.057.614,1.746,1.746,0,0,0,0,1.092q0,4.149,0,8.3C0,10.182.321,10.5,1.107,10.5" transform="translate(0 -0.001)" fill="#fff"/>
  </g>
</svg>
