<svg id="Group_410" data-name="Group 410" xmlns="http://www.w3.org/2000/svg" xmlns:xlink="http://www.w3.org/1999/xlink" width="33.296" height="32.923" viewBox="0 0 33.296 32.923">
  <defs>
    <clipPath id="clip-path">
      <rect id="Rectangle_128" data-name="Rectangle 128" width="33.296" height="32.923" fill="#efefef"/>
    </clipPath>
  </defs>
  <g id="Group_178" data-name="Group 178" clip-path="url(#clip-path)">
    <path id="Path_306" data-name="Path 306" d="M33.3,30.248a7.115,7.115,0,0,1-.493,1.258A3.067,3.067,0,0,1,29.6,32.883a3.368,3.368,0,0,1-2.067-1.055q-5.3-5.319-10.62-10.627c-.091-.092-.17-.2-.276-.319-.126.12-.218.2-.307.294L5.542,31.96a3.546,3.546,0,0,1-4.234.469,3.088,3.088,0,0,1-.587-4.517c.111-.133.233-.257.355-.38q5.4-5.4,10.808-10.807a3.364,3.364,0,0,1,.3-.234c-.125-.133-.2-.22-.283-.3L1.09,5.382A3.146,3.146,0,0,1,5.111.572a3.625,3.625,0,0,1,.465.4q5.352,5.317,10.7,10.638c.107.107.207.221.338.362.111-.1.2-.188.291-.276Q22.231,6.378,27.555,1.055a3.14,3.14,0,0,1,5.3,1.256,2.971,2.971,0,0,1-.78,3.112q-5.331,5.339-10.67,10.67c-.092.091-.2.167-.328.273.122.129.205.221.294.309q5.3,5.274,10.615,10.54A4.277,4.277,0,0,1,33.3,29.4Z" transform="translate(0 -0.001)" fill="#efefef"/>
  </g>
</svg>
