<svg id="Group_363" data-name="Group 363" xmlns="http://www.w3.org/2000/svg" xmlns:xlink="http://www.w3.org/1999/xlink" width="17.324" height="17.13" viewBox="0 0 17.324 17.13">
  <defs>
    <clipPath id="clip-path">
      <rect id="Rectangle_128" data-name="Rectangle 128" width="17.324" height="17.13" fill="#ccc"/>
    </clipPath>
  </defs>
  <g id="Group_178" data-name="Group 178" clip-path="url(#clip-path)">
    <path id="Path_306" data-name="Path 306" d="M17.323,15.738a3.7,3.7,0,0,1-.256.654,1.6,1.6,0,0,1-1.668.717,1.753,1.753,0,0,1-1.075-.549q-2.76-2.767-5.526-5.529c-.048-.048-.089-.1-.144-.166-.065.062-.114.107-.16.153L2.883,16.629a1.845,1.845,0,0,1-2.2.244,1.607,1.607,0,0,1-.305-2.35c.058-.069.121-.134.185-.2Q3.371,11.513,6.184,8.7a1.75,1.75,0,0,1,.154-.122c-.065-.069-.1-.114-.147-.157L.567,2.8A1.637,1.637,0,0,1,2.659.3,1.886,1.886,0,0,1,2.9.508Q5.686,3.275,8.469,6.043c.056.056.108.115.176.189.058-.055.106-.1.152-.144q2.77-2.77,5.54-5.539A1.634,1.634,0,0,1,17.1,1.2a1.546,1.546,0,0,1-.406,1.619Q13.916,5.6,11.138,8.373c-.048.048-.1.087-.171.142.063.067.107.115.153.161q2.76,2.744,5.523,5.484a2.225,2.225,0,0,1,.68,1.138Z" transform="translate(0 -0.001)" fill="#ccc"/>
  </g>
</svg>
