<?xml version="1.0" encoding="utf-8"?>
<!-- Generator: Adobe Illustrator 26.5.2, SVG Export Plug-In . SVG Version: 6.00 Build 0)  -->
<svg version="1.1" id="Group_303" xmlns="http://www.w3.org/2000/svg" xmlns:xlink="http://www.w3.org/1999/xlink" x="0px" y="0px"
	 viewBox="0 0 17.3 17.1" style="enable-background:new 0 0 17.3 17.1;" xml:space="preserve">
<style type="text/css">
	.st0{clip-path:url(#SVGID_00000124136524493078273580000008561357343321847951_);}
</style>
<g>
	<defs>
		<rect id="SVGID_1_" y="0" width="17.3" height="17.1"/>
	</defs>
	<clipPath id="SVGID_00000060015754263835495130000010651285994816693405_">
		<use xlink:href="#SVGID_1_"  style="overflow:visible;"/>
	</clipPath>
	<g id="Group_178" style="clip-path:url(#SVGID_00000060015754263835495130000010651285994816693405_);">
		<path id="Path_306" d="M17.3,15.7c-0.1,0.2-0.2,0.4-0.3,0.7c-0.4,0.6-1,0.8-1.7,0.7c-0.4,0-0.8-0.2-1.1-0.5
			c-1.8-1.8-3.7-3.7-5.5-5.5c0,0-0.1-0.1-0.1-0.2C8.6,10.9,8.5,11,8.5,11l-5.6,5.6c-0.6,0.6-1.5,0.7-2.2,0.2
			c-0.7-0.5-0.9-1.5-0.4-2.2c0,0,0.1-0.1,0.1-0.1c0.1-0.1,0.1-0.1,0.2-0.2c1.9-1.9,3.7-3.7,5.6-5.6c0,0,0.1-0.1,0.2-0.1
			C6.3,8.5,6.2,8.5,6.2,8.4L0.6,2.8c-0.6-0.6-0.6-1.7,0-2.3C1.1-0.1,2-0.1,2.7,0.3c0.1,0.1,0.2,0.1,0.2,0.2C4.8,2.4,6.6,4.2,8.5,6
			c0.1,0.1,0.1,0.1,0.2,0.2c0.1-0.1,0.1-0.1,0.2-0.1c1.8-1.8,3.7-3.7,5.5-5.5C15-0.1,16-0.1,16.6,0.5c0.2,0.2,0.4,0.5,0.5,0.7
			c0.2,0.6,0,1.2-0.4,1.6c-1.9,1.9-3.7,3.7-5.6,5.6c0,0-0.1,0.1-0.2,0.1c0.1,0.1,0.1,0.1,0.2,0.2c1.8,1.8,3.7,3.7,5.5,5.5
			c0.3,0.3,0.6,0.7,0.7,1.1L17.3,15.7z"/>
	</g>
</g>
</svg>
