<?xml version="1.0" encoding="utf-8"?>
<!-- Generator: Adobe Illustrator 26.5.2, SVG Export Plug-In . SVG Version: 6.00 Build 0)  -->
<svg version="1.1" id="Ebene_1" xmlns="http://www.w3.org/2000/svg" xmlns:xlink="http://www.w3.org/1999/xlink" x="0px" y="0px"
	 viewBox="0 0 1000 1000" style="enable-background:new 0 0 1000 1000;" xml:space="preserve">
<style type="text/css">
	.st0{fill:#FFFFFF;}
</style>
<g>
	<path class="st0" d="M993,469.1c0,20.6,0,41.2,0,61.7c-0.5,2.5-1.4,4.9-1.6,7.5C982.7,646.5,943.1,742,872,823.7
		C795.6,911.6,699.7,965.9,585,986.4c-17.9,3.2-36.1,5-54.1,7.5c-20.5,0-41.1,0-61.6,0c-14.3-1.9-28.6-3.4-42.7-5.6
		C301,968.5,197,909.9,117.6,810.9C19,688-12.8,547.7,18.8,393.4C58.2,201.6,221.5,45.3,414.2,13.8c18.3-3,36.7-5.1,55.1-7.6
		c20.5,0,41.1,0,61.6,0c2.5,0.5,4.9,1.2,7.4,1.6c30.9,5.3,62.8,7.3,92.5,16.5c194.7,60,313.3,190.5,354.6,390.7
		C989,432.7,990.5,451,993,469.1z M499.7,75.3c-234.3,0.4-424.2,191-423.6,425.3c0.6,234.5,189.9,424,423.7,424.2
		c234,0.2,424.2-190.3,424.1-424.8C923.9,265.3,733.7,74.9,499.7,75.3z"/>
	<path class="st0" d="M486.2,252.1c34.3,0.2,60,4.5,84.3,16.1c58.2,27.8,77.8,87.8,47.3,144.7c-13.5,25.1-32.9,44.9-54.8,62.6
		c-5.7,4.6-11.4,9.4-16.8,14.4c-14.6,13.6-22,30.5-22.7,50.4c-0.2,6.4-0.1,12.9-0.4,19.3c-0.5,12.4-5.8,19.5-17.6,23.6
		c-2.1,0.7-4.3,1.3-6.5,1.7c-36,6.2-48.9-4.5-49.6-40.8c-0.9-42.9,14.2-78.3,48.8-104.8c10.9-8.4,21.7-17.1,31.8-26.5
		c11.8-11,19.9-24.3,20.3-41.2c0.4-17.1-7-29.6-22.1-37.6c-33.3-17.7-73.9-7.8-95.3,23c-13.7,19.7-26.6,24-45.6,15.3
		c-17.6-8.1-25.3-26.2-19-47.2c9.1-30.4,31.3-48.4,59.2-60.5C448.6,255.3,471,252.1,486.2,252.1z"/>
	<path class="st0" d="M535.2,681.5c-0.2,27.1-22.8,49.7-49.7,49.7c-27.2,0-49.5-23.1-49.1-51.1c0.3-27.4,22.7-49.4,50-49
		C513.4,631.5,535.4,654.2,535.2,681.5z"/>
</g>
</svg>
