<?xml version="1.0" encoding="utf-8"?>
<!-- Generator: Adobe Illustrator 26.5.2, SVG Export Plug-In . SVG Version: 6.00 Build 0)  -->
<svg version="1.1" id="Ebene_1" xmlns="http://www.w3.org/2000/svg" xmlns:xlink="http://www.w3.org/1999/xlink" x="0px" y="0px"
	 viewBox="0 0 1000 1000" style="enable-background:new 0 0 1000 1000;" xml:space="preserve">
<style type="text/css">
	.st0{fill:#FFFFFF;}
</style>
<g>
	<path class="st0" d="M17,513.2c0-8.8,0-17.6,0-26.4c5.7-28.2,23.9-48,43.5-67.5C180.2,300.2,299.6,180.9,418.7,61.2
		c19.7-19.8,39.6-38.5,68.1-44.2c8.8,0,17.6,0,26.4,0c28.2,5.7,47.9,23.9,67.4,43.5C700.1,180.6,819.9,300.4,940,419.9
		c19.9,19.8,38,40,43,68.8c0,7.5,0,15.1,0,22.6c-0.6,1.4-1.3,2.8-1.6,4.3c-8.7,43.8-43.3,72.7-87.8,73.2c-4.6,0.1-9.1,0-14.2,0
		c0,5.2,0,9,0,12.7c0,93.3,0.3,186.6-0.2,280c-0.2,44.2-30.3,83.5-72.5,96.6c-5.9,1.8-12,3.3-17.9,4.9c-57.9,0-115.7,0-173.6,0
		c-16.7-6.2-22.6-18.5-22.5-36c0.4-71.9,0.2-143.8,0.2-215.8c0-32.1-19.5-51.4-51.8-51.5c-26.7-0.1-53.4,0-80.1,0
		c-34.9,0-53.7,18.7-53.7,53.4c0,71.3-0.3,142.6,0.2,213.9c0.1,17.4-5.7,29.8-22.4,36c-57.9,0-115.7,0-173.6,0
		c-0.8-0.5-1.6-1.2-2.4-1.3c-45.1-5.6-89.5-47.5-88.7-108.6c1.2-90.8,0.3-181.7,0.3-272.5c0-3.6,0-7.3,0-11.7
		c-6.6,0-11.9,0.2-17.2,0c-34.6-1.8-60.3-18-76.5-48.4C22.4,531.9,20.2,522.3,17,513.2z"/>
</g>
</svg>
