<svg xmlns="http://www.w3.org/2000/svg" width="38.569" height="35.994" viewBox="0 0 38.569 35.994">
  <g id="Gruppe_737" data-name="Gruppe 737" transform="translate(519.022 80.948)">
    <path id="Pfad_471" data-name="Pfad 471" d="M-511.308-52.67c-1.267,0-2.471,0-3.676,0a3.863,3.863,0,0,1-4.037-4.043q0-10.1,0-20.2a3.86,3.86,0,0,1,4.046-4.033q15.244,0,30.488,0a3.855,3.855,0,0,1,4.032,4.046q0,10.1,0,20.2a3.856,3.856,0,0,1-4.05,4.029q-7.491,0-14.983-.006a1.177,1.177,0,0,0-.8.283q-4.272,3.434-8.557,6.852c-.125.1-.248.2-.378.3a1.241,1.241,0,0,1-1.359.151,1.249,1.249,0,0,1-.729-1.2q0-2.952,0-5.9Zm11.589-18h-4.861c-1.808,0-3.615,0-5.423,0a1.281,1.281,0,0,0-1.3,1.132,1.289,1.289,0,0,0,1,1.4,2.624,2.624,0,0,0,.559.033q10,0,20,0c.12,0,.242.007.361,0a1.25,1.25,0,0,0,1.122-.842,1.282,1.282,0,0,0-1.3-1.723Q-494.638-70.669-499.719-70.665Zm-5.143,5.141q-2.49,0-4.981,0a1.3,1.3,0,0,0-1.464,1.3,1.307,1.307,0,0,0,1.447,1.274q4.981,0,9.961,0a1.306,1.306,0,0,0,1.444-1.277,1.3,1.3,0,0,0-1.428-1.293Q-502.372-65.526-504.863-65.524Z" transform="translate(0 0)" fill="#2699fb"/>
    <path id="Pfad_472" data-name="Pfad 472" d="M-435.412,15.061q5.081,0,10.163,0a1.282,1.282,0,0,1,1.3,1.723,1.25,1.25,0,0,1-1.122.842c-.119.012-.241,0-.361,0q-10,0-20,0a2.624,2.624,0,0,1-.559-.033,1.289,1.289,0,0,1-1-1.4,1.281,1.281,0,0,1,1.3-1.132c1.808-.008,3.615,0,5.423,0Z" transform="translate(-64.308 -85.726)" fill="#fff"/>
    <path id="Pfad_473" data-name="Pfad 473" d="M-440.533,63.077q2.49,0,4.981,0a1.3,1.3,0,0,1,1.428,1.293,1.306,1.306,0,0,1-1.444,1.277q-4.981,0-9.961,0a1.307,1.307,0,0,1-1.447-1.274,1.3,1.3,0,0,1,1.464-1.3Q-443.023,63.075-440.533,63.077Z" transform="translate(-64.329 -128.6)" fill="#fff"/>
  </g>
</svg>
