<svg id="Gruppe_765" data-name="Gruppe 765" xmlns="http://www.w3.org/2000/svg" xmlns:xlink="http://www.w3.org/1999/xlink" width="38.57" height="36.004" viewBox="0 0 38.57 36.004">
  <defs>
    <clipPath id="clip-path">
      <rect id="Rechteck_1657" data-name="Rechteck 1657" width="38.57" height="36.004" fill="#fb2691"/>
    </clipPath>
  </defs>
  <g id="Gruppe_641" data-name="Gruppe 641" clip-path="url(#clip-path)">
    <path id="Pfad_462" data-name="Pfad 462" d="M7.715,28.286c-1.326,0-2.609.022-3.89-.006A3.766,3.766,0,0,1,.518,26.344,3.506,3.506,0,0,1,.006,24.51Q0,14.147.01,3.783A3.816,3.816,0,0,1,3.861.008c3.213-.015,6.427,0,9.64,0H34.429a3.871,3.871,0,0,1,4.14,4.141q0,10.082,0,20.165a3.826,3.826,0,0,1-2.873,3.837,4.942,4.942,0,0,1-1.23.134c-4.994.009-9.988,0-14.983.016a1.179,1.179,0,0,0-.679.238q-4.31,3.419-8.6,6.865c-.125.1-.25.2-.378.3a1.243,1.243,0,0,1-1.392.161,1.256,1.256,0,0,1-.718-1.206q0-2.932,0-5.865v-.5m2.571,3.747c.173-.135.269-.208.362-.283,2.3-1.84,4.6-3.673,6.893-5.524a2.189,2.189,0,0,1,1.466-.518q7.772.022,15.544.008A1.3,1.3,0,0,0,36,24.277q0-10.121,0-20.243a1.31,1.31,0,0,0-1.465-1.458H4.048A1.317,1.317,0,0,0,2.573,4.064q0,10.081,0,20.163a1.312,1.312,0,0,0,1.475,1.489c1.62,0,3.24,0,4.86,0A1.286,1.286,0,0,1,10.285,27.1c0,1.486,0,2.972,0,4.458v.474" transform="translate(0 0)" fill="#fb2691"/>
    <path id="Pfad_463" data-name="Pfad 463" d="M83.454,95.835q5.082,0,10.163,0a1.282,1.282,0,0,1,1.3,1.724A1.25,1.25,0,0,1,93.8,98.4c-.119.012-.241,0-.361,0q-10,0-20,0a2.611,2.611,0,0,1-.559-.034,1.281,1.281,0,0,1,.3-2.533c1.834-.008,3.669,0,5.5,0h4.78" transform="translate(-64.149 -85.546)" fill="#fb2691"/>
    <path id="Pfad_464" data-name="Pfad 464" d="M78.306,146.32q-2.49,0-4.981,0a1.293,1.293,0,1,1,0-2.57q5,0,10,0a1.291,1.291,0,1,1,0,2.57q-2.511,0-5.021,0" transform="translate(-64.171 -128.318)" fill="#fb2691"/>
  </g>
</svg>
