<?xml version="1.0" encoding="UTF-8"?>
<!-- Generator: Adobe Illustrator 26.5.2, SVG Export Plug-In . SVG Version: 6.00 Build 0)  -->
<svg version="1.1" id="Ebene_1" xmlns="http://www.w3.org/2000/svg" xmlns:xlink="http://www.w3.org/1999/xlink" x="0px" y="0px" viewBox="0 0 450 451.3" style="enable-background:new 0 0 450 451.3;" xml:space="preserve">
<style type="text/css">
	.st0{fill:#FFFFFF;}
</style>
<g>
	<path class="st0" d="M89.9,436.7c-2.7,0-5.5,0-8.2,0c-8.8-3.2-13.8-9.5-15.3-18.6c-0.4-2.6-0.4-5.2-0.4-7.8   c0-119.1,0.2-238.1-0.2-357.2c-0.1-21.6,17.7-38.5,38.2-38.4c81.2,0.1,162.4,0,243.5,0.1c21.1,0,36.8,15.7,36.8,36.7   c0.1,120.3,0,240.6,0,360.9c0,11.2-3.7,20.1-14.9,24.4c-2.7,0-5.5,0-8.2,0c-6.3-4.2-13.1-7.9-18.9-12.7   c-33.9-28.6-67.6-57.4-101.4-86.1c-9.5-8.1-20.4-8.1-29.8-0.1c-33.7,28.6-67.4,57.2-101.1,85.8C103.8,428.8,97.8,434.1,89.9,436.7z   "/>
</g>
</svg>