<svg xmlns="http://www.w3.org/2000/svg" xmlns:xlink="http://www.w3.org/1999/xlink" width="17.903" height="17.661" viewBox="0 0 17.903 17.661">
  <defs>
    <clipPath id="clip-path">
      <rect id="Rectangle_312" data-name="Rectangle 312" width="17.903" height="17.661" transform="translate(0 0)" fill="#2699fb"/>
    </clipPath>
  </defs>
  <g id="Group_373" data-name="Group 373" transform="translate(0 0)">
    <g id="Group_372" data-name="Group 372" transform="translate(0 0)" clip-path="url(#clip-path)">
      <path id="Path_373" data-name="Path 373" d="M17.9,16.384a1.562,1.562,0,0,1-.47.891,1.444,1.444,0,0,1-2.069-.105q-1.925-1.919-3.844-3.845a.839.839,0,0,1-.1-.144c-.479.25-.9.509-1.345.7a7.064,7.064,0,0,1-5.86-.078,7.076,7.076,0,0,1-3.32-3.087,7.025,7.025,0,0,1-.872-4.02,7.052,7.052,0,0,1,2.072-4.54A7.016,7.016,0,0,1,6.385.052a7.073,7.073,0,0,1,4.256.8,7.173,7.173,0,0,1,2.686,2.491,7.051,7.051,0,0,1,1.132,3.6,7.059,7.059,0,0,1-1,3.939.225.225,0,0,0,.04.336c1.246,1.235,2.48,2.48,3.726,3.715a2.064,2.064,0,0,1,.671,1.094ZM12.125,7.234a4.891,4.891,0,1,0-4.9,4.886,4.9,4.9,0,0,0,4.9-4.886" transform="translate(0 0)" fill="#2699fb"/>
    </g>
  </g>
</svg>
