<svg id="Group_389" data-name="Group 389" xmlns="http://www.w3.org/2000/svg" xmlns:xlink="http://www.w3.org/1999/xlink" width="42.669" height="30.698" viewBox="0 0 42.669 30.698">
  <defs>
    <clipPath id="clip-path">
      <rect id="Rectangle_349" data-name="Rectangle 349" width="42.669" height="30.699" fill="none"/>
    </clipPath>
  </defs>
  <g id="Group_388" data-name="Group 388" clip-path="url(#clip-path)">
    <path id="Path_379" data-name="Path 379" d="M0,14.929a3.767,3.767,0,0,1,1.092-2.057,3.386,3.386,0,0,1,4.853.246q4.529,4.518,9.046,9.048a4.824,4.824,0,0,1,.357.472c.179-.226.271-.368.387-.484Q26.224,11.66,36.715,1.168A3.431,3.431,0,0,1,40.4.184,3.382,3.382,0,0,1,41.981,5.41,7.485,7.485,0,0,1,41.456,6Q29.716,17.748,17.974,29.493a3.354,3.354,0,0,1-3.707,1,3.987,3.987,0,0,1-1.414-.913C8.925,25.684,5.024,21.765,1.11,17.86A4.117,4.117,0,0,1,0,15.763Z" transform="translate(0 0)" fill="#5cb95c"/>
  </g>
</svg>
