<?xml version="1.0" encoding="utf-8"?>
<!-- Generator: Adobe Illustrator 26.5.2, SVG Export Plug-In . SVG Version: 6.00 Build 0)  -->
<svg version="1.1" id="svg5" xmlns="http://www.w3.org/2000/svg" xmlns:xlink="http://www.w3.org/1999/xlink" x="0px" y="0px"
	 viewBox="0 0 95.4 96.4" style="enable-background:new 0 0 95.4 96.4;" xml:space="preserve">
<style type="text/css">
	.st0{fill:#1D1D1B;}
	.st1{fill:#FFFFFF;}
</style>
<path class="st0" d="M15.5,0h64.4c8.6,0,15.5,6.9,15.5,15.5V81c0,8.6-6.9,15.5-15.5,15.5H15.5C6.9,96.4,0,89.5,0,81V15.5
	C0,6.9,6.9,0,15.5,0z"/>
<g>
	<path class="st1" d="M69.6,78c0.9-0.4,1.9-0.9,2.8-1.3c0.4-0.2,0.6-0.4,0.6-0.9c0-13.6,0-27.2,0-40.8c0-5.8,0-11.6,0-17.4
		c0-0.2,0-0.5,0-0.7c-0.2,0-0.4,0-0.7,0c-13.9,0-27.7,0-41.6,0c-1.7,0-3.2,0.6-4.8,1.2c-0.2,0.1-0.5,0.2-0.7,0.4c0.1,0,0.3,0,0.5,0
		c13.7,0,27.5,0,41.2,0c1.7,0,1.8,0.1,1.8,1.8c0,19.3,0,38.5,0,57.8c0,1,0,2,0,3c0,0.8-0.2,1.1-1,1.3c-0.8,0.2-1.7,0.2-2.5,0.2
		c-6.9,0-13.8,0-20.7,0c-8,0-16,0-24,0c-1.5,0-1.6,0-1.6-1.5c0-20.5,0-40.9,0-61.3c0-0.9,0.3-1.4,1.1-1.9c3.6-2,7.6-3.2,11.7-3.8
		c0.4-0.1,0.7-0.1,1.1-0.1c14,0,27.9,0,41.9,0c0.1,0,0.3,0,0.4,0c0.9,0,1.2,0.3,1.2,1.2c0,5.2,0,10.4,0,15.6c0,15.2,0,30.4,0,45.6
		c0,1.2-0.3,1.6-1.4,1.6C73.2,78,71.4,78,69.6,78L69.6,78z"/>
	<path class="st0" d="M45.5,59.8c-2.9,0-5.5-0.9-7.7-2.6v12.7h-7.3V31.6h7.3v2c2.2-1.7,4.8-2.6,7.7-2.6c3.9,0,7.2,1.4,9.8,4.1
		c2.6,2.7,3.9,6.2,3.9,10.3s-1.3,7.5-3.9,10.3S49.4,59.8,45.5,59.8z M44.2,53c2.2,0,4-0.7,5.4-2.1c1.3-1.4,2-3.2,2-5.5
		s-0.7-4.1-2-5.5s-3.1-2-5.4-2s-4.3,0.8-6.4,2.5v10C39.9,52.1,42,53,44.2,53z"/>
</g>
</svg>
