<?xml version="1.0" encoding="utf-8"?>
<!-- Generator: Adobe Illustrator 26.5.2, SVG Export Plug-In . SVG Version: 6.00 Build 0)  -->
<svg version="1.1" id="Ebene_1" xmlns="http://www.w3.org/2000/svg" xmlns:xlink="http://www.w3.org/1999/xlink" x="0px" y="0px"
	 viewBox="0 0 344 343.9" style="enable-background:new 0 0 344 343.9;" xml:space="preserve">
<style type="text/css">
	.st0{fill:#FFFFFF;}
</style>
<g>
	<path class="st0" d="M0,182c0-6.7,0-13.4,0-20.1c0.2-1,0.5-1.9,0.6-2.9c1.9-26.9,9.5-52.2,23.8-75C56.6,32.1,103.5,4,164.4,0.3
		c31.1-1.9,60.9,4.7,88.2,19.9c56.4,31.5,87.1,79.9,91,144.5c1.9,31-4.9,60.6-19.9,87.9c-26.7,48.5-67.4,78.2-121.8,88.6
		c-6.6,1.3-13.3,1.8-19.9,2.7c-6.7,0-13.4,0-20.2,0c-0.9-0.2-1.7-0.5-2.6-0.6c-29.9-2.1-57.4-11.3-82.1-28.1
		c-40.6-27.4-65.6-65.4-74.5-113.7C1.5,195.1,0.9,188.5,0,182z M238.7,131.2c-0.2-20.4-5.2-32.1-14.9-41.6
		c-10.1-10-22.4-15.3-36.3-17.3c-23-3.3-44.5,0.4-62.6,15.9c-11.3,9.7-18.4,21.8-19.4,37c-0.5,7.2,2.9,12.3,8.7,15.9
		c9.6,5.8,20.5,1.5,25-9.6c2-4.9,3.7-9.8,6-14.5c2.9-6,6.5-11.6,12.9-14.5c8.7-4,17.9-4.4,26.8-1.2c16.3,5.7,22.2,24.3,12,37.3
		c-1.8,2.3-3.7,4.5-5.8,6.4c-8.2,7.8-16.7,15.2-24.7,23.2c-10.2,10.1-14.4,22.7-13.7,36.9c0.5,9.3,6.2,15.2,15,15.9
		c8.8,0.7,14.6-3.7,16.9-12.8c0.5-2,1-3.9,1.4-5.9c1.3-7.3,4.8-13.4,10.3-18.4c8.7-7.9,17.3-15.9,25.8-24
		C232.1,150.1,238.8,138.9,238.7,131.2z M190.2,253.1c0.1-11.3-8.3-19.9-19.5-20.1c-11.5-0.2-20.5,8.5-20.6,19.8
		c0,11.5,8.3,19.8,19.9,19.9C181.6,272.9,190.1,264.7,190.2,253.1z"/>
</g>
</svg>
