<?xml version="1.0" encoding="utf-8"?>
<!-- Generator: Adobe Illustrator 26.5.2, SVG Export Plug-In . SVG Version: 6.00 Build 0)  -->
<svg version="1.1" id="svg5" xmlns="http://www.w3.org/2000/svg" xmlns:xlink="http://www.w3.org/1999/xlink" x="0px" y="0px"
	 viewBox="0 0 70 93.6" style="enable-background:new 0 0 70 93.6;" xml:space="preserve">
<style type="text/css">
	.st0{fill:#2799FA;}
</style>
<g>
	<g>
		<path class="st0" d="M24.1,18.9c2.5-2.4,4.9-4.9,7.4-7.4c0.2-0.2,0.4-0.4,0.6-0.6c0.1,0,0.2,0,0.3,0c0,0.3-0.1,0.6-0.1,0.9
			c0,9.3,0,18.6,0,27.9h0c0,6.5,0,13,0,19.5c0,0.3,0,0.7,0,1c0.3,2.2,2.8,3.5,4.7,2.3c1.2-0.7,1.6-1.8,1.6-3.1c0-5.4,0-10.8,0-16.2
			c0-0.1,0-0.2,0-0.3c0-10.4,0-20.8,0-31.1c0-0.3,0-0.6,0-1c0.3,0.3,0.5,0.5,0.7,0.7c2.4,2.4,4.7,4.7,7.1,7c0.5,0.4,1.1,0.8,1.7,1
			c1.3,0.4,2.8-0.2,3.5-1.4c0.7-1.3,0.5-2.8-0.6-3.9c-4.4-4.4-8.7-8.8-13.1-13.1c-1.6-1.5-3.3-1.5-4.9,0C29,5.1,25,9.1,21.1,13
			c-0.5,0.5-1,0.9-1.4,1.4c-1.2,1.3-1.1,3.1,0.1,4.3C20.9,20,22.8,20.1,24.1,18.9z"/>
		<path class="st0" d="M57.8,23.6H44v5h13.8c4,0,7.2,3.2,7.2,7.2v45.7c0,4-3.2,7.2-7.2,7.2H12.2c-4,0-7.2-3.2-7.2-7.2V35.8
			c0-4,3.2-7.2,7.2-7.2H26v-5H12.2C5.5,23.6,0,29.1,0,35.8v45.7c0,6.7,5.5,12.2,12.2,12.2h45.7c6.7,0,12.2-5.5,12.2-12.2V35.8
			C70,29.1,64.5,23.6,57.8,23.6z"/>
	</g>
</g>
</svg>
