<?xml version="1.0" encoding="utf-8"?>
<!-- Generator: Adobe Illustrator 26.5.2, SVG Export Plug-In . SVG Version: 6.00 Build 0)  -->
<svg version="1.1" id="Ebene_1" xmlns="http://www.w3.org/2000/svg" xmlns:xlink="http://www.w3.org/1999/xlink" x="0px" y="0px"
	 viewBox="0 0 294 326" style="enable-background:new 0 0 294 326;" xml:space="preserve">
<style type="text/css">
	.st0{fill:#FFFFFF;}
</style>
<g>
	<path class="st0" d="M146.5,290.8c56.5-0.4,105.1-43,111-99.1c5-47.3-13.8-83.8-53.6-109.5c-7.1-4.6-10.5-10.8-9-17.7
		c2.4-11.1,14.2-16.2,24.3-10.3c17.3,10,31.8,23.2,43.6,39.3c61.8,84.6,14.7,205.4-88.1,225.8C95.4,335.1,19.1,282.6,5,202.5
		C-5.3,144,22.7,83.9,74,54.3c5.8-3.4,11.6-3.7,17.3-0.1c5.3,3.3,7.8,8.4,7.4,14.6c-0.4,6.1-3.8,10.3-9,13.4
		c-12.5,7.3-23.2,16.8-32,28.4c-49.2,64.9-15.5,157.9,64,176.6C129.8,289.1,138.2,289.6,146.5,290.8z"/>
	<path class="st0" d="M162.6,98.7c0,26.3,0.1,52.6,0,78.9c0,11.2-9.2,18.6-19.6,16.2c-6.6-1.5-11.6-7.3-12.1-14
		c-0.1-1.4-0.1-2.7-0.1-4.1c0-51.5,0-103,0-154.5c0-2.3,0-4.8,0.6-7c2.1-7.7,9.3-12.3,17.5-11.3c7.6,0.9,13.5,7.4,13.5,15.4
		c0.1,22.8,0.1,45.6,0.1,68.5C162.6,90.7,162.6,94.7,162.6,98.7z"/>
</g>
</svg>
