<?xml version="1.0" encoding="utf-8"?>
<!-- Generator: Adobe Illustrator 26.5.2, SVG Export Plug-In . SVG Version: 6.00 Build 0)  -->
<svg version="1.1" id="Ebene_1" xmlns="http://www.w3.org/2000/svg" xmlns:xlink="http://www.w3.org/1999/xlink" x="0px" y="0px"
	 viewBox="0 0 1000 1000" style="enable-background:new 0 0 1000 1000;" xml:space="preserve">
<style type="text/css">
	.st0{fill:#FFFFFF;}
</style>
<path class="st0" d="M707.4,980.3H292.6c-150.7,0-273-122.2-273-273V292.6c0-150.7,122.2-273,273-273h414.8
	c150.7,0,273,122.2,273,273v414.8C980.3,858.1,858.1,980.3,707.4,980.3z"/>
<g>
	<path d="M270.5,392.7c0,16.8-3.8,30.2-11.4,40.3c-7.6,10.1-17.9,15.2-30.9,15.2c-11,0-19.9-3.8-26.7-11.5v51.4h-29.1V337.2h27
		l1,10.7c7.1-8.5,16.2-12.7,27.6-12.7c13.4,0,23.9,5,31.3,14.9c7.5,9.9,11.2,23.6,11.2,41.1V392.7z M241.3,390.6
		c0-10.1-1.8-18-5.4-23.5c-3.6-5.5-8.8-8.3-15.7-8.3c-9.1,0-15.4,3.5-18.8,10.5v44.6c3.6,7.2,9.9,10.8,19,10.8
		C234.4,424.7,241.3,413.3,241.3,390.6z"/>
	<path d="M349.7,364.5c-4-0.5-7.5-0.8-10.5-0.8c-11,0-18.2,3.7-21.7,11.2v71.3h-29.1v-109H316l0.8,13c5.8-10,13.9-15,24.3-15
		c3.2,0,6.2,0.4,9.1,1.3L349.7,364.5z"/>
	<path d="M355.6,390.7c0-10.8,2.1-20.4,6.2-28.9c4.2-8.5,10.2-15,18-19.6c7.8-4.6,16.9-6.9,27.2-6.9c14.7,0,26.7,4.5,36,13.5
		c9.3,9,14.5,21.2,15.6,36.7l0.2,7.5c0,16.7-4.7,30.1-14,40.2c-9.3,10.1-21.9,15.2-37.6,15.2c-15.7,0-28.3-5-37.6-15.1
		c-9.4-10.1-14-23.8-14-41.1V390.7z M384.7,392.7c0,10.4,1.9,18.3,5.8,23.8c3.9,5.5,9.5,8.2,16.7,8.2c7,0,12.6-2.7,16.5-8.1
		c4-5.4,5.9-14.1,5.9-26c0-10.2-2-18-5.9-23.6c-4-5.6-9.5-8.4-16.7-8.4c-7.1,0-12.6,2.8-16.5,8.3
		C386.6,372.5,384.7,381.1,384.7,392.7z"/>
	<path d="M504,337.2l0.9,12.2c7.7-9.5,18.2-14.2,31.3-14.2c14,0,23.7,5.5,28.9,16.6c7.7-11.1,18.6-16.6,32.7-16.6
		c11.8,0,20.6,3.4,26.4,10.3c5.8,6.9,8.7,17.2,8.7,31.1v69.6h-29.2v-69.5c0-6.2-1.2-10.7-3.6-13.5c-2.4-2.9-6.7-4.3-12.8-4.3
		c-8.7,0-14.8,4.2-18.1,12.5l0.1,74.8h-29.1v-69.4c0-6.3-1.2-10.9-3.7-13.7c-2.5-2.8-6.7-4.2-12.7-4.2c-8.3,0-14.2,3.4-17.9,10.3v77
		h-29.1v-109H504z"/>
	<path d="M650.8,390.7c0-10.8,2.1-20.4,6.2-28.9c4.2-8.5,10.2-15,18-19.6c7.8-4.6,16.9-6.9,27.2-6.9c14.7,0,26.7,4.5,36,13.5
		c9.3,9,14.5,21.2,15.6,36.7l0.2,7.5c0,16.7-4.7,30.1-14,40.2c-9.3,10.1-21.9,15.2-37.6,15.2s-28.3-5-37.6-15.1
		c-9.4-10.1-14-23.8-14-41.1V390.7z M679.9,392.7c0,10.4,1.9,18.3,5.8,23.8c3.9,5.5,9.5,8.2,16.7,8.2c7.1,0,12.6-2.7,16.5-8.1
		c4-5.4,5.9-14.1,5.9-26c0-10.2-2-18-5.9-23.6c-4-5.6-9.5-8.4-16.7-8.4c-7.1,0-12.6,2.8-16.5,8.3
		C681.8,372.5,679.9,381.1,679.9,392.7z"/>
	<path d="M830.9,416.1c0-3.6-1.8-6.4-5.3-8.4c-3.5-2-9.2-3.9-17-5.5c-25.9-5.4-38.9-16.4-38.9-33c0-9.7,4-17.7,12-24.2
		c8-6.5,18.5-9.7,31.5-9.7c13.8,0,24.9,3.3,33.2,9.8c8.3,6.5,12.4,15,12.4,25.4h-29.1c0-4.2-1.3-7.6-4-10.3
		c-2.7-2.7-6.9-4.1-12.6-4.1c-4.9,0-8.7,1.1-11.4,3.3c-2.7,2.2-4,5-4,8.5c0,3.2,1.5,5.8,4.6,7.8c3.1,2,8.2,3.7,15.5,5.1
		c7.3,1.4,13.4,3.1,18.3,4.9c15.4,5.6,23.1,15.4,23.1,29.3c0,9.9-4.3,18-12.8,24.1c-8.5,6.1-19.5,9.2-33,9.2
		c-9.1,0-17.2-1.6-24.3-4.9c-7.1-3.3-12.6-7.7-16.7-13.4c-4-5.7-6-11.8-6-18.4H794c0.3,5.2,2.2,9.1,5.7,11.9
		c3.6,2.8,8.3,4.1,14.3,4.1c5.6,0,9.8-1.1,12.6-3.2C829.5,422.2,830.9,419.5,830.9,416.1z"/>
</g>
<g>
	<path d="M223.1,644.3l20.2-73.4h30.4l-36.8,109h-27.8l-36.8-109h30.4L223.1,644.3z"/>
	<path d="M335.4,681.8c-16,0-29-4.9-39-14.7c-10-9.8-15.1-22.9-15.1-39.2v-2.8c0-10.9,2.1-20.7,6.3-29.4c4.2-8.6,10.2-15.3,18-19.9
		c7.8-4.7,16.6-7,26.5-7c14.9,0,26.6,4.7,35.2,14.1c8.6,9.4,12.8,22.7,12.8,40v11.9h-69.4c0.9,7.1,3.8,12.8,8.5,17.1
		c4.7,4.3,10.7,6.4,18,6.4c11.2,0,20-4.1,26.3-12.2l14.3,16c-4.4,6.2-10.3,11-17.7,14.5C352.7,680.1,344.4,681.8,335.4,681.8z
		 M332,592.3c-5.8,0-10.5,2-14,5.9c-3.6,3.9-5.9,9.5-6.9,16.8h40.5v-2.3c-0.1-6.5-1.9-11.5-5.2-15C343,594.1,338.2,592.3,332,592.3z
		"/>
	<path d="M457.9,598.1c-4-0.5-7.5-0.8-10.5-0.8c-11,0-18.2,3.7-21.7,11.2v71.3h-29.1v-109h27.5l0.8,13c5.8-10,13.9-15,24.3-15
		c3.2,0,6.2,0.4,9.1,1.3L457.9,598.1z"/>
	<path d="M502.6,679.8h-29.2V525.1h29.2V679.8z"/>
	<path d="M589.8,679.8c-1.3-2.6-2.3-5.9-2.9-9.8c-7.1,7.9-16.2,11.8-27.5,11.8c-10.7,0-19.5-3.1-26.5-9.3c-7-6.2-10.5-14-10.5-23.4
		c0-11.5,4.3-20.4,12.8-26.6c8.6-6.2,20.9-9.3,37.1-9.4h13.4V607c0-5-1.3-9.1-3.9-12.1s-6.7-4.5-12.2-4.5c-4.9,0-8.7,1.2-11.5,3.5
		c-2.8,2.4-4.2,5.6-4.2,9.7h-29.1c0-6.3,1.9-12.2,5.8-17.5c3.9-5.4,9.4-9.6,16.5-12.6c7.1-3.1,15.1-4.6,24-4.6
		c13.4,0,24.1,3.4,32,10.1c7.9,6.7,11.8,16.2,11.8,28.5v47.2c0.1,10.3,1.5,18.2,4.3,23.5v1.7H589.8z M565.7,659.6
		c4.3,0,8.3-1,11.9-2.9c3.6-1.9,6.3-4.5,8.1-7.7v-18.7h-10.9c-14.6,0-22.3,5-23.3,15.1l-0.1,1.7c0,3.6,1.3,6.6,3.8,9
		C557.8,658.4,561.3,659.6,565.7,659.6z"/>
	<path d="M633,624.5c0-16.7,4-30.2,11.9-40.4c8-10.2,18.7-15.3,32.2-15.3c12,0,21.3,4.1,27.9,12.3l1.2-10.3h26.4v105.3
		c0,9.5-2.2,17.8-6.5,24.9c-4.3,7.1-10.4,12.4-18.3,16.1c-7.9,3.7-17.1,5.5-27.6,5.5c-8,0-15.8-1.6-23.4-4.8
		c-7.6-3.2-13.3-7.3-17.2-12.3l12.9-17.7c7.3,8.1,16,12.2,26.4,12.2c7.7,0,13.7-2.1,18-6.2c4.3-4.1,6.4-10,6.4-17.6v-5.8
		c-6.7,7.6-15.5,11.4-26.5,11.4c-13.1,0-23.7-5.1-31.8-15.4c-8.1-10.2-12.1-23.8-12.1-40.7V624.5z M662.1,626.7
		c0,9.9,2,17.6,5.9,23.3c4,5.6,9.4,8.4,16.3,8.4c8.9,0,15.2-3.3,19-10v-45.9c-3.9-6.7-10.2-10-18.8-10c-7,0-12.5,2.9-16.5,8.6
		C664.1,606.8,662.1,615.3,662.1,626.7z"/>
</g>
</svg>
